<?xml version="1.0" encoding="iso-8859-1"?>
<!-- Generator: Adobe Illustrator 19.0.0, SVG Export Plug-In . SVG Version: 6.00 Build 0)  -->
<svg version="1.1" id="Layer_1" xmlns="http://www.w3.org/2000/svg" xmlns:xlink="http://www.w3.org/1999/xlink" x="0px" y="0px"
	 viewBox="0 0 512 512" style="enable-background:new 0 0 512 512;" xml:space="preserve">
<g>
	<g>
		<path d="M465.376,80H46.592C21.344,80,0,102.016,0,128.08v258.08C0,411.424,20.912,432,46.592,432h418.784
			C491.072,432,512,411.424,512,386.16V127.488C512,101.744,490.64,80,465.376,80z M480,386.16c0,7.76-6.416,13.84-14.624,13.84
			H46.592C38.4,400,32,393.92,32,386.16V128.08c0-8.272,7.088-16.08,14.592-16.08h418.784c7.648,0,14.624,7.376,14.624,15.488
			V386.16z"/>
	</g>
</g>
<g>
	<g>
		<path d="M128,320H80c-8.848,0-16,7.168-16,16c0,8.832,7.152,16,16,16h48c8.848,0,16-7.168,16-16C144,327.168,136.848,320,128,320z
			"/>
	</g>
</g>
<g>
	<g>
		<path d="M496,160H16c-8.848,0-16,7.168-16,16c0,8.832,7.152,16,16,16h480c8.848,0,16-7.168,16-16C512,167.168,504.848,160,496,160
			z"/>
	</g>
</g>
<g>
	<g>
		<path d="M224,320h-48c-8.848,0-16,7.168-16,16c0,8.832,7.152,16,16,16h48c8.848,0,16-7.168,16-16C240,327.168,232.848,320,224,320
			z"/>
	</g>
</g>
<g>
	<g>
		<path d="M320,320h-48c-8.848,0-16,7.168-16,16c0,8.832,7.152,16,16,16h48c8.848,0,16-7.168,16-16C336,327.168,328.848,320,320,320
			z"/>
	</g>
</g>
<g>
	<g>
		<path d="M416,320h-48c-8.848,0-16,7.168-16,16c0,8.832,7.152,16,16,16h48c8.848,0,16-7.168,16-16C432,327.168,424.848,320,416,320
			z"/>
	</g>
</g>
<g>
</g>
<g>
</g>
<g>
</g>
<g>
</g>
<g>
</g>
<g>
</g>
<g>
</g>
<g>
</g>
<g>
</g>
<g>
</g>
<g>
</g>
<g>
</g>
<g>
</g>
<g>
</g>
<g>
</g>
</svg>
