<?xml version="1.0" encoding="iso-8859-1"?>
<!-- Generator: Adobe Illustrator 19.0.0, SVG Export Plug-In . SVG Version: 6.00 Build 0)  -->
<svg version="1.1" id="Capa_1" xmlns="http://www.w3.org/2000/svg" xmlns:xlink="http://www.w3.org/1999/xlink" x="0px" y="0px"
	 viewBox="0 0 512 512" style="enable-background:new 0 0 512 512;" xml:space="preserve">
<g>
	<g>
		<g>
			<path d="M180.365,289.615c7.521-7.531,11.646-18.938,11.635-32.094c0-4.677-0.531-9.531-1.583-14.427
				C184.26,214.438,162.198,192,140.177,192c-10.125,0-19.083,4.615-25.229,12.99c-5.427,7.385-8.292,17.125-8.281,28.156
				c0,4.667,0.531,9.51,1.583,14.417v0.01c6.156,28.656,28.219,51.094,50.24,51.094
				C166.885,298.667,174.448,295.531,180.365,289.615z M129.104,243.104c-0.729-3.438-1.104-6.792-1.104-9.969
				c0-6.365,1.469-11.885,4.146-15.531c8.74-12,31.708,3.417,37.417,29.969c0.729,3.427,1.104,6.771,1.104,9.958
				c0.01,7.365-1.958,13.563-5.396,17C156.031,283.75,134.563,268.469,129.104,243.104z"/>
			<path d="M371.823,192c-22.021,0-44.083,22.438-50.24,51.094c-1.052,4.896-1.583,9.75-1.583,14.417
				c-0.01,13.167,4.115,24.573,11.635,32.104c5.917,5.917,13.479,9.052,21.875,9.052c22.021,0,44.083-22.438,50.24-51.094v-0.01
				c1.052-4.906,1.583-9.75,1.583-14.406c0.01-11.042-2.854-20.781-8.281-28.167C390.906,196.615,381.948,192,371.823,192z
				 M382.896,243.104c-5.458,25.365-26.958,40.677-36.167,31.427c-3.438-3.438-5.406-9.635-5.396-17.01
				c0-3.177,0.375-6.521,1.104-9.948c4.333-20.177,18.969-34.24,29.385-34.24c3.292,0,5.927,1.396,8.031,4.271
				c2.677,3.646,4.146,9.167,4.146,15.542C384,236.313,383.625,239.667,382.896,243.104z"/>
			<path d="M350.76,161.99v-0.01c0.729-3.854,1.125-7.594,1.219-11.188c0.354-14.063-3.823-26.313-11.781-34.479
				c-6.156-6.313-14.021-9.646-22.76-9.646c-22.302,0-44.063,22.552-49.531,51.354c-0.729,3.854-1.125,7.594-1.219,11.188
				c-0.354,14.063,3.823,26.313,11.781,34.479c6.156,6.313,14.021,9.646,22.76,9.646C323.531,213.333,345.292,190.781,350.76,161.99
				z M330.646,150.271c-0.052,2.49-0.344,5.073-0.844,7.74c-4.885,25.656-26.5,40.625-36.052,30.781
				c-3.854-3.948-5.938-10.885-5.729-19.063c0.052-2.49,0.344-5.083,0.844-7.74c3.813-20.031,18.115-33.99,28.573-33.99
				c2.938,0,5.385,1.052,7.479,3.208C328.771,135.156,330.854,142.094,330.646,150.271z"/>
			<path d="M256,0C114.844,0,0,114.844,0,256s114.844,256,256,256s256-114.844,256-256S397.156,0,256,0z M256,490.667
				C126.604,490.667,21.333,385.396,21.333,256c0-60.866,23.488-116.212,61.628-157.956l86.837,86.837
				c6.189,10.867,14.715,19.535,24.296,24.296l33.323,33.323c-15.652,9.943-22.229,27.268-26.573,39.271
				c-1.531,4.219-3.427,9.479-4.74,11.042c-4.365,5.26-9.729,10.135-15.417,15.292c-14.531,13.177-31,28.115-31.354,52.479
				c-0.177,12.896,3.802,23.854,11.521,31.688c8.427,8.542,20.906,13.063,36.073,13.063c17.073,0,27.823-5.677,36.458-10.24
				c7.396-3.906,13.229-6.99,22.604-6.99c9.385,0,15.229,3.083,22.625,6.99c8.635,4.563,19.396,10.24,36.458,10.24
				c15.167,0,27.646-4.521,36.073-13.063c4.473-4.539,7.527-10.225,9.408-16.634l53.402,53.402
				C372.212,467.178,316.866,490.667,256,490.667z M187.083,131.208c9.521-9.875,31.156,5.115,36.052,30.771
				c0.5,2.667,0.792,5.26,0.844,7.771c0.208,8.156-1.875,15.094-5.729,19.042c-3.176,3.259-7.702,3.578-12.471,1.904l-18.674-18.674
				c-2.121-4.202-3.919-8.813-4.906-14.01c-0.5-2.667-0.792-5.25-0.844-7.76C181.146,142.094,183.229,135.156,187.083,131.208z
				 M243.148,258.232l97.085,97.085c0.392,1.84,1.072,3.56,1.1,5.559c0.104,7.167-1.708,12.688-5.385,16.417
				c-5.469,5.542-14.365,6.708-20.875,6.708c-11.781,0-18.604-3.604-26.5-7.771c-8.396-4.438-17.906-9.458-32.573-9.458
				c-14.667,0-24.188,5.021-32.573,9.458c-7.896,4.167-14.719,7.771-26.5,7.771c-6.51,0-15.406-1.167-20.875-6.708
				c-3.677-3.729-5.49-9.25-5.385-16.406c0.219-15.094,11.396-25.24,24.354-36.979c5.979-5.427,12.167-11.042,17.5-17.458
				c3.688-4.438,5.865-10.448,8.385-17.417C226.258,274.243,231.44,262.82,243.148,258.232z M429.039,413.956l-69.145-69.145
				c-5.319-15.522-17.487-26.646-28.582-36.707c-5.688-5.156-11.052-10.031-15.417-15.281c-1.313-1.573-3.208-6.833-4.74-11.052
				c-6.375-17.615-17.052-47.104-55.167-47.104c-2.07,0-3.76,0.398-5.673,0.566l-25.365-25.365c3.096-1.57,6.016-3.552,8.579-6.181
				c7.958-8.167,12.135-20.417,11.781-34.458c-0.094-3.615-0.49-7.354-1.219-11.219c-5.469-28.792-27.229-51.344-49.531-51.344
				c-8.74,0-16.604,3.333-22.76,9.646c-6.878,7.057-10.724,17.26-11.47,28.936L98.044,82.961
				C139.788,44.822,195.134,21.333,256,21.333c129.396,0,234.667,105.271,234.667,234.667
				C490.667,316.866,467.178,372.212,429.039,413.956z"/>
		</g>
	</g>
</g>
<g>
</g>
<g>
</g>
<g>
</g>
<g>
</g>
<g>
</g>
<g>
</g>
<g>
</g>
<g>
</g>
<g>
</g>
<g>
</g>
<g>
</g>
<g>
</g>
<g>
</g>
<g>
</g>
<g>
</g>
</svg>
