<?xml version="1.0" encoding="iso-8859-1"?>
<!-- Generator: Adobe Illustrator 19.0.0, SVG Export Plug-In . SVG Version: 6.00 Build 0)  -->
<svg version="1.1" id="Capa_1" xmlns="http://www.w3.org/2000/svg" xmlns:xlink="http://www.w3.org/1999/xlink" x="0px" y="0px"
	 viewBox="0 0 512 512" style="enable-background:new 0 0 512 512;" xml:space="preserve">
<g>
	<g>
		<path d="M359.359,298.779c-16.238-4.704-33.164-0.749-47.505,12.339c-16.479,15.029-35.801,22.544-55.107,22.544
			c-19.321,0-38.628-7.515-55.107-22.559c-14.837-13.55-32.34-17.278-49.05-11.821C151.804,304.449,151,309.619,151,315
			c0,57.891,47.109,105,105,105s105-47.109,105-105C361,309.445,360.194,304.103,359.359,298.779z"/>
	</g>
</g>
<g>
	<g>
		<path d="M61,150v317c0,24.814,20.186,45,45,45h300c24.814,0,45-20.186,45-45V150H61z M256,450c-74.443,0-135-60.557-135-135
			c0-70.895,58.231-135,135-135c76.346,0,135,63.875,135,135C391,389.443,330.443,450,256,450z"/>
	</g>
</g>
<g>
	<g>
		<path d="M256,210c-40.36,0-75.07,23.15-92.639,56.636c20.616-0.965,41.177,6.498,58.493,22.319
			c21.534,19.629,48.252,19.629,69.786,0c16.829-15.346,36.855-22.87,56.968-22.377C331.029,233.123,296.338,210,256,210z"/>
	</g>
</g>
<g>
	<g>
		<path d="M406,0H106C81.186,0,61,20.186,61,45v75h390V45C451,20.186,430.814,0,406,0z M316,90c-8.284,0-15-6.716-15-15
			c0-8.286,6.716-15,15-15s15,6.714,15,15C331,83.284,324.284,90,316,90z M376,90c-8.284,0-15-6.716-15-15c0-8.286,6.716-15,15-15
			s15,6.714,15,15C391,83.284,384.284,90,376,90z"/>
	</g>
</g>
<g>
</g>
<g>
</g>
<g>
</g>
<g>
</g>
<g>
</g>
<g>
</g>
<g>
</g>
<g>
</g>
<g>
</g>
<g>
</g>
<g>
</g>
<g>
</g>
<g>
</g>
<g>
</g>
<g>
</g>
</svg>
